<?xml version="1.0" encoding="utf-8"?>
<!-- Generator: Adobe Illustrator 18.1.1, SVG Export Plug-In . SVG Version: 6.00 Build 0)  -->
<!DOCTYPE svg PUBLIC "-//W3C//DTD SVG 1.1//EN" "http://www.w3.org/Graphics/SVG/1.1/DTD/svg11.dtd">
<svg version="1.1" id="Layer_1" xmlns="http://www.w3.org/2000/svg" xmlns:xlink="http://www.w3.org/1999/xlink" x="0px" y="0px"
	 viewBox="0 0 850 500" enable-background="new 0 0 850 500" xml:space="preserve">
<g>
	<g>
		<polygon fill="#D0CFC5" points="320.2,311.9 320.2,357.7 730.5,357.7 730.5,311.9 		"/>
		<rect x="320.2" y="89.2" fill="#136FD2" width="410.3" height="45.9"/>
		<rect x="607.1" y="145.9" fill="#D0CFC5" width="123.4" height="155.1"/>
		<rect x="320.2" y="145.9" fill="#D0CFC5" width="276.1" height="155.1"/>
		<rect x="320.2" y="32.9" fill="#D0CFC5" width="410.3" height="45.9"/>
		<rect x="336" y="189.4" fill="#AFAEA7" width="244.2" height="96.1"/>
		<g>
			<path fill="#FFFFFF" d="M335.7,109.2h1.3l0.1,1h0.1c0.3-0.3,0.7-0.6,1.1-0.8c0.4-0.2,0.9-0.4,1.4-0.4c0.8,0,1.4,0.2,1.8,0.7
				c0.4,0.5,0.6,1.2,0.6,2.1v4.3h-1.6v-4c0-0.6-0.1-1-0.3-1.2c-0.2-0.3-0.5-0.4-1-0.4c-0.3,0-0.6,0.1-0.9,0.2
				c-0.3,0.2-0.6,0.4-0.9,0.7v4.7h-1.6V109.2z"/>
			<path fill="#FFFFFF" d="M344,114.2c0-0.4,0.1-0.7,0.3-1c0.2-0.3,0.5-0.5,0.8-0.7c0.4-0.2,0.9-0.4,1.5-0.5
				c0.6-0.1,1.3-0.2,2.2-0.3c0-0.4-0.2-0.7-0.4-1s-0.7-0.4-1.2-0.4c-0.4,0-0.8,0.1-1.2,0.2c-0.4,0.1-0.7,0.3-1.1,0.5l-0.6-1.1
				c0.4-0.2,0.9-0.5,1.4-0.7c0.5-0.2,1.1-0.3,1.7-0.3c1,0,1.7,0.3,2.2,0.8c0.5,0.5,0.8,1.2,0.8,2.2v4.1H349l-0.1-0.9h0
				c-0.4,0.3-0.8,0.5-1.2,0.7c-0.4,0.2-0.9,0.3-1.4,0.3c-0.3,0-0.6,0-0.9-0.1c-0.3-0.1-0.5-0.2-0.7-0.4c-0.2-0.2-0.4-0.4-0.5-0.6
				C344,114.8,344,114.5,344,114.2z M345.5,114.1c0,0.3,0.1,0.5,0.4,0.7c0.2,0.1,0.5,0.2,0.9,0.2s0.7-0.1,1-0.2
				c0.3-0.2,0.6-0.4,1-0.6v-1.5c-0.6,0-1.1,0.1-1.5,0.2c-0.4,0.1-0.7,0.2-1,0.3c-0.2,0.1-0.4,0.3-0.5,0.4
				C345.6,113.7,345.5,113.9,345.5,114.1z"/>
			<path fill="#FFFFFF" d="M352,109.2h1.6l1.3,3.6c0.1,0.3,0.2,0.7,0.4,1c0.1,0.3,0.2,0.7,0.3,1h0.1c0.1-0.4,0.2-0.7,0.3-1
				c0.1-0.3,0.2-0.7,0.4-1l1.3-3.6h1.5l-2.7,6.9h-1.8L352,109.2z"/>
		</g>
		<g>
			<path fill="#353535" d="M622.2,170.7c0-0.4,0.1-0.7,0.3-1c0.2-0.3,0.5-0.5,0.8-0.7c0.4-0.2,0.9-0.4,1.5-0.5
				c0.6-0.1,1.3-0.2,2.2-0.3c0-0.4-0.2-0.7-0.4-1s-0.7-0.4-1.2-0.4c-0.4,0-0.8,0.1-1.2,0.2s-0.7,0.3-1.1,0.5l-0.6-1.1
				c0.4-0.2,0.9-0.5,1.4-0.7c0.5-0.2,1.1-0.3,1.7-0.3c1,0,1.7,0.3,2.2,0.8s0.8,1.2,0.8,2.2v4.1h-1.3l-0.1-0.9h0
				c-0.4,0.3-0.8,0.5-1.2,0.7c-0.4,0.2-0.9,0.3-1.4,0.3c-0.3,0-0.6,0-0.9-0.1s-0.5-0.2-0.7-0.4c-0.2-0.2-0.4-0.4-0.5-0.6
				C622.3,171.3,622.2,171,622.2,170.7z M623.8,170.6c0,0.3,0.1,0.5,0.4,0.7c0.2,0.1,0.5,0.2,0.9,0.2c0.3,0,0.7-0.1,1-0.2
				c0.3-0.2,0.6-0.4,1-0.6v-1.5c-0.6,0-1.1,0.1-1.5,0.2c-0.4,0.1-0.7,0.2-1,0.3c-0.2,0.1-0.4,0.3-0.5,0.4
				C623.8,170.2,623.8,170.4,623.8,170.6z"/>
			<path fill="#353535" d="M631.2,170.7c0.4,0.3,0.8,0.5,1.2,0.6c0.4,0.2,0.9,0.2,1.4,0.2c0.5,0,0.9-0.1,1.2-0.2
				c0.3-0.2,0.4-0.4,0.4-0.6s-0.2-0.4-0.5-0.6c-0.3-0.2-0.8-0.3-1.5-0.5c-0.3-0.1-0.6-0.2-1-0.3c-0.3-0.1-0.6-0.3-0.8-0.4
				s-0.4-0.3-0.6-0.5c-0.1-0.2-0.2-0.4-0.2-0.7c0-0.6,0.3-1.1,0.8-1.5c0.5-0.4,1.3-0.6,2.3-0.6c0.6,0,1.1,0.1,1.6,0.3
				c0.5,0.2,0.9,0.4,1.3,0.6l-0.7,1c-0.3-0.2-0.6-0.4-1-0.5c-0.4-0.1-0.7-0.2-1.1-0.2c-0.5,0-0.9,0.1-1.1,0.2s-0.3,0.3-0.3,0.5
				c0,0.1,0,0.2,0.1,0.3c0.1,0.1,0.2,0.2,0.4,0.3c0.2,0.1,0.4,0.2,0.6,0.2c0.2,0.1,0.5,0.1,0.8,0.2c0.4,0.1,0.8,0.2,1.1,0.3
				s0.6,0.3,0.8,0.4c0.2,0.2,0.4,0.3,0.5,0.6c0.1,0.2,0.2,0.5,0.2,0.7c0,0.3-0.1,0.6-0.2,0.8s-0.3,0.5-0.6,0.7
				c-0.3,0.2-0.6,0.3-1,0.5s-0.9,0.2-1.4,0.2c-0.6,0-1.3-0.1-1.8-0.3c-0.6-0.2-1.1-0.5-1.5-0.8L631.2,170.7z"/>
			<path fill="#353535" d="M639.2,165.7h4.6v6.9h-1.6V167h-3V165.7z M642.9,164.5c-0.3,0-0.6-0.1-0.8-0.3c-0.2-0.2-0.3-0.5-0.3-0.8
				s0.1-0.6,0.3-0.8c0.2-0.2,0.5-0.3,0.8-0.3c0.3,0,0.6,0.1,0.8,0.3s0.3,0.5,0.3,0.8s-0.1,0.6-0.3,0.8
				C643.5,164.4,643.2,164.5,642.9,164.5z"/>
			<path fill="#353535" d="M647.1,169.1c0-0.6,0.1-1.1,0.3-1.5c0.2-0.4,0.4-0.8,0.7-1.1c0.3-0.3,0.6-0.5,1-0.7
				c0.4-0.2,0.7-0.3,1.1-0.3c0.4,0,0.8,0.1,1.1,0.2c0.3,0.1,0.6,0.3,0.9,0.6l-0.1-1.2v-2.5h1.6v9.9h-1.3l-0.1-0.8h0
				c-0.3,0.3-0.6,0.5-0.9,0.7c-0.4,0.2-0.7,0.3-1.1,0.3c-0.4,0-0.8-0.1-1.2-0.2c-0.4-0.2-0.7-0.4-0.9-0.7c-0.3-0.3-0.5-0.7-0.6-1.1
				C647.2,170.2,647.1,169.7,647.1,169.1z M648.8,169.1c0,0.7,0.1,1.3,0.4,1.7c0.3,0.4,0.7,0.6,1.2,0.6c0.6,0,1.1-0.3,1.6-0.8v-3.1
				c-0.2-0.2-0.5-0.4-0.7-0.5c-0.2-0.1-0.5-0.1-0.7-0.1c-0.2,0-0.5,0.1-0.7,0.2c-0.2,0.1-0.4,0.2-0.6,0.4c-0.2,0.2-0.3,0.4-0.4,0.7
				C648.9,168.4,648.8,168.8,648.8,169.1z"/>
			<path fill="#353535" d="M655.7,169.1c0-0.6,0.1-1.1,0.3-1.5c0.2-0.4,0.5-0.8,0.8-1.1c0.3-0.3,0.7-0.6,1.1-0.7s0.9-0.2,1.3-0.2
				c0.5,0,1,0.1,1.4,0.2s0.7,0.4,1,0.7s0.5,0.6,0.6,1c0.1,0.4,0.2,0.8,0.2,1.3c0,0.2,0,0.3,0,0.4c0,0.1,0,0.2,0,0.3h-5
				c0.1,0.6,0.3,1.1,0.7,1.4s0.9,0.5,1.6,0.5c0.4,0,0.7,0,1-0.1c0.3-0.1,0.6-0.2,0.9-0.4l0.5,1c-0.4,0.2-0.8,0.4-1.2,0.6
				c-0.5,0.1-0.9,0.2-1.4,0.2c-0.5,0-1-0.1-1.5-0.2c-0.5-0.2-0.9-0.4-1.2-0.7c-0.3-0.3-0.6-0.7-0.8-1.1
				C655.8,170.2,655.7,169.7,655.7,169.1z M660.9,168.5c0-0.6-0.1-1-0.4-1.3c-0.3-0.3-0.7-0.5-1.2-0.5c-0.2,0-0.5,0-0.7,0.1
				s-0.4,0.2-0.6,0.3c-0.2,0.1-0.3,0.3-0.4,0.5c-0.1,0.2-0.2,0.5-0.2,0.8H660.9z"/>
		</g>
		<g>
			<path fill="#353535" d="M351.4,214.2c0-0.4,0.1-0.7,0.3-1c0.2-0.3,0.5-0.5,0.8-0.7c0.4-0.2,0.9-0.4,1.5-0.5
				c0.6-0.1,1.3-0.2,2.2-0.3c0-0.4-0.2-0.7-0.4-1s-0.7-0.4-1.2-0.4c-0.4,0-0.8,0.1-1.2,0.2c-0.4,0.1-0.7,0.3-1.1,0.5l-0.6-1.1
				c0.4-0.2,0.9-0.5,1.4-0.7c0.5-0.2,1.1-0.3,1.7-0.3c1,0,1.7,0.3,2.2,0.8c0.5,0.5,0.8,1.2,0.8,2.2v4.1h-1.3l-0.1-0.9h0
				c-0.4,0.3-0.8,0.5-1.2,0.7c-0.4,0.2-0.9,0.3-1.4,0.3c-0.3,0-0.6,0-0.9-0.1c-0.3-0.1-0.5-0.2-0.7-0.4c-0.2-0.2-0.4-0.4-0.5-0.6
				C351.4,214.8,351.4,214.5,351.4,214.2z M352.9,214.1c0,0.3,0.1,0.5,0.4,0.7c0.2,0.1,0.5,0.2,0.9,0.2s0.7-0.1,1-0.2
				c0.3-0.2,0.6-0.4,1-0.6v-1.5c-0.6,0-1.1,0.1-1.5,0.2c-0.4,0.1-0.7,0.2-1,0.3c-0.2,0.1-0.4,0.3-0.5,0.4
				C353,213.8,352.9,213.9,352.9,214.1z"/>
			<path fill="#353535" d="M360.6,209.2h1.3l0.1,1.6h0c0.4-0.6,0.8-1,1.3-1.3c0.5-0.3,1-0.4,1.6-0.4c0.3,0,0.5,0,0.7,0.1
				s0.4,0.1,0.6,0.2l-0.3,1.4c-0.2-0.1-0.4-0.1-0.6-0.2c-0.2,0-0.4,0-0.7,0c-0.5,0-0.9,0.1-1.4,0.4c-0.4,0.3-0.8,0.7-1.2,1.4v3.8
				h-1.6V209.2z"/>
			<path fill="#353535" d="M369.8,210.5H368v-1.2l1.9-0.1l0.2-1.9h1.3v1.9h3.1v1.3h-3.1v2.8c0,0.6,0.1,1,0.4,1.3
				c0.2,0.3,0.6,0.4,1.2,0.4c0.3,0,0.6,0,0.8-0.1s0.5-0.1,0.7-0.2l0.3,1.2c-0.3,0.1-0.6,0.2-1,0.3c-0.4,0.1-0.8,0.1-1.2,0.1
				c-0.5,0-1-0.1-1.3-0.2c-0.4-0.1-0.6-0.3-0.9-0.6c-0.2-0.3-0.4-0.6-0.5-0.9c-0.1-0.4-0.1-0.8-0.1-1.2V210.5z"/>
			<path fill="#353535" d="M376.8,209.2h4.6v6.9h-1.6v-5.6h-3V209.2z M380.4,208c-0.3,0-0.6-0.1-0.8-0.3c-0.2-0.2-0.3-0.5-0.3-0.8
				s0.1-0.6,0.3-0.8s0.5-0.3,0.8-0.3c0.3,0,0.6,0.1,0.8,0.3s0.3,0.5,0.3,0.8s-0.1,0.6-0.3,0.8C381,207.9,380.8,208,380.4,208z"/>
			<path fill="#353535" d="M385,212.7c0-0.6,0.1-1.1,0.3-1.5c0.2-0.4,0.5-0.8,0.8-1.1c0.4-0.3,0.8-0.5,1.2-0.7
				c0.5-0.2,1-0.2,1.5-0.2c0.6,0,1.1,0.1,1.5,0.3c0.4,0.2,0.8,0.4,1.1,0.7l-0.8,1c-0.3-0.2-0.5-0.4-0.8-0.5
				c-0.3-0.1-0.6-0.2-0.9-0.2c-0.7,0-1.3,0.2-1.7,0.6c-0.4,0.4-0.6,1-0.6,1.7c0,0.3,0.1,0.7,0.2,0.9c0.1,0.3,0.3,0.5,0.5,0.7
				c0.2,0.2,0.4,0.4,0.7,0.5c0.3,0.1,0.6,0.2,0.9,0.2c0.4,0,0.7-0.1,1.1-0.2c0.3-0.1,0.6-0.3,0.9-0.5l0.7,1
				c-0.4,0.3-0.8,0.6-1.3,0.8c-0.5,0.2-1,0.3-1.5,0.3c-0.5,0-1-0.1-1.5-0.2c-0.5-0.2-0.9-0.4-1.2-0.7s-0.6-0.7-0.8-1.1
				C385.1,213.7,385,213.2,385,212.7z"/>
			<path fill="#353535" d="M393.4,206.2h3.8v7.5c0,0.5,0.1,0.8,0.4,1c0.2,0.2,0.5,0.3,0.9,0.3c0.3,0,0.7-0.1,1.2-0.3l0.4,1.2
				c-0.3,0.1-0.6,0.2-0.9,0.3c-0.3,0.1-0.6,0.1-1,0.1c-0.8,0-1.4-0.2-1.8-0.7c-0.4-0.5-0.6-1.1-0.6-2v-6.1h-2.2V206.2z"/>
			<path fill="#353535" d="M401.6,212.7c0-0.6,0.1-1.1,0.3-1.5c0.2-0.4,0.5-0.8,0.8-1.1c0.3-0.3,0.7-0.6,1.1-0.7s0.9-0.2,1.3-0.2
				c0.5,0,1,0.1,1.4,0.2c0.4,0.2,0.7,0.4,1,0.7c0.3,0.3,0.5,0.6,0.6,1c0.1,0.4,0.2,0.8,0.2,1.3c0,0.2,0,0.3,0,0.4c0,0.1,0,0.2,0,0.3
				h-5c0.1,0.6,0.3,1.1,0.7,1.4c0.4,0.3,0.9,0.5,1.6,0.5c0.4,0,0.7,0,1-0.1c0.3-0.1,0.6-0.2,0.9-0.4l0.5,1c-0.4,0.2-0.8,0.4-1.2,0.6
				c-0.5,0.1-0.9,0.2-1.4,0.2c-0.5,0-1-0.1-1.5-0.2c-0.5-0.2-0.9-0.4-1.2-0.7c-0.3-0.3-0.6-0.7-0.8-1.1
				C401.7,213.7,401.6,213.2,401.6,212.7z M406.9,212c0-0.6-0.1-1-0.4-1.3c-0.3-0.3-0.7-0.5-1.2-0.5c-0.2,0-0.5,0-0.7,0.1
				c-0.2,0.1-0.4,0.2-0.6,0.3c-0.2,0.1-0.3,0.3-0.4,0.5c-0.1,0.2-0.2,0.5-0.2,0.8H406.9z"/>
		</g>
		<g>
			<path fill="#353535" d="M336.2,170.7c0.4,0.3,0.8,0.5,1.2,0.6c0.4,0.2,0.9,0.2,1.4,0.2c0.5,0,0.9-0.1,1.2-0.2
				c0.3-0.2,0.4-0.4,0.4-0.6s-0.2-0.4-0.5-0.6s-0.8-0.3-1.5-0.5c-0.3-0.1-0.6-0.2-1-0.3s-0.6-0.3-0.8-0.4c-0.2-0.2-0.4-0.3-0.6-0.5
				c-0.1-0.2-0.2-0.4-0.2-0.7c0-0.6,0.3-1.1,0.8-1.5c0.5-0.4,1.3-0.6,2.3-0.6c0.6,0,1.1,0.1,1.6,0.3c0.5,0.2,0.9,0.4,1.3,0.6l-0.7,1
				c-0.3-0.2-0.6-0.4-1-0.5c-0.4-0.1-0.7-0.2-1.1-0.2c-0.5,0-0.9,0.1-1.1,0.2c-0.2,0.1-0.3,0.3-0.3,0.5c0,0.1,0,0.2,0.1,0.3
				c0.1,0.1,0.2,0.2,0.4,0.3c0.2,0.1,0.4,0.2,0.6,0.2c0.2,0.1,0.5,0.1,0.8,0.2c0.4,0.1,0.8,0.2,1.1,0.3c0.3,0.1,0.6,0.3,0.8,0.4
				c0.2,0.2,0.4,0.3,0.5,0.6c0.1,0.2,0.2,0.5,0.2,0.7c0,0.3-0.1,0.6-0.2,0.8s-0.3,0.5-0.6,0.7c-0.3,0.2-0.6,0.3-1,0.5
				s-0.9,0.2-1.4,0.2c-0.6,0-1.3-0.1-1.8-0.3c-0.6-0.2-1.1-0.5-1.5-0.8L336.2,170.7z"/>
			<path fill="#353535" d="M343.8,169.1c0-0.6,0.1-1.1,0.3-1.5c0.2-0.4,0.5-0.8,0.8-1.1c0.3-0.3,0.7-0.6,1.1-0.7s0.9-0.2,1.3-0.2
				c0.5,0,1,0.1,1.4,0.2c0.4,0.2,0.7,0.4,1,0.7c0.3,0.3,0.5,0.6,0.6,1c0.1,0.4,0.2,0.8,0.2,1.3c0,0.2,0,0.3,0,0.4c0,0.1,0,0.2,0,0.3
				h-5c0.1,0.6,0.3,1.1,0.7,1.4c0.4,0.3,0.9,0.5,1.6,0.5c0.4,0,0.7,0,1-0.1c0.3-0.1,0.6-0.2,0.9-0.4l0.5,1c-0.4,0.2-0.8,0.4-1.2,0.6
				c-0.5,0.1-0.9,0.2-1.4,0.2c-0.5,0-1-0.1-1.5-0.2c-0.5-0.2-0.9-0.4-1.2-0.7c-0.3-0.3-0.6-0.7-0.8-1.1
				C343.9,170.2,343.8,169.7,343.8,169.1z M349.1,168.5c0-0.6-0.1-1-0.4-1.3c-0.3-0.3-0.7-0.5-1.2-0.5c-0.2,0-0.5,0-0.7,0.1
				c-0.2,0.1-0.4,0.2-0.6,0.3c-0.2,0.1-0.3,0.3-0.4,0.5c-0.1,0.2-0.2,0.5-0.2,0.8H349.1z"/>
			<path fill="#353535" d="M352.4,169.1c0-0.6,0.1-1.1,0.3-1.5c0.2-0.4,0.5-0.8,0.8-1.1c0.4-0.3,0.8-0.5,1.2-0.7
				c0.5-0.2,1-0.2,1.5-0.2c0.6,0,1.1,0.1,1.5,0.3c0.4,0.2,0.8,0.4,1.1,0.7l-0.8,1c-0.3-0.2-0.5-0.4-0.8-0.5
				c-0.3-0.1-0.6-0.2-0.9-0.2c-0.7,0-1.3,0.2-1.7,0.6c-0.4,0.4-0.6,1-0.6,1.7c0,0.3,0.1,0.7,0.2,0.9c0.1,0.3,0.3,0.5,0.5,0.7
				c0.2,0.2,0.4,0.4,0.7,0.5c0.3,0.1,0.6,0.2,0.9,0.2c0.4,0,0.7-0.1,1.1-0.2c0.3-0.1,0.6-0.3,0.9-0.5l0.7,1
				c-0.4,0.3-0.8,0.6-1.3,0.8c-0.5,0.2-1,0.3-1.5,0.3c-0.5,0-1-0.1-1.5-0.2c-0.5-0.2-0.9-0.4-1.2-0.7s-0.6-0.7-0.8-1.1
				C352.5,170.2,352.4,169.7,352.4,169.1z"/>
			<path fill="#353535" d="M362.4,167h-1.8v-1.2l1.9-0.1l0.2-1.9h1.3v1.9h3.1v1.3h-3.1v2.8c0,0.6,0.1,1,0.4,1.3
				c0.2,0.3,0.6,0.4,1.2,0.4c0.3,0,0.6,0,0.8-0.1s0.5-0.1,0.7-0.2l0.3,1.2c-0.3,0.1-0.6,0.2-1,0.3c-0.4,0.1-0.8,0.1-1.2,0.1
				c-0.5,0-1-0.1-1.3-0.2c-0.4-0.1-0.6-0.3-0.9-0.6c-0.2-0.3-0.4-0.6-0.5-0.9c-0.1-0.4-0.1-0.8-0.1-1.2V167z"/>
			<path fill="#353535" d="M369.4,165.7h4.6v6.9h-1.6V167h-3V165.7z M373,164.5c-0.3,0-0.6-0.1-0.8-0.3c-0.2-0.2-0.3-0.5-0.3-0.8
				s0.1-0.6,0.3-0.8s0.5-0.3,0.8-0.3c0.3,0,0.6,0.1,0.8,0.3s0.3,0.5,0.3,0.8s-0.1,0.6-0.3,0.8C373.6,164.4,373.4,164.5,373,164.5z"
				/>
			<path fill="#353535" d="M377.3,169.1c0-0.6,0.1-1.1,0.3-1.5c0.2-0.4,0.4-0.8,0.8-1.1c0.3-0.3,0.7-0.5,1.1-0.7s0.9-0.2,1.3-0.2
				c0.4,0,0.9,0.1,1.3,0.2s0.8,0.4,1.1,0.7c0.3,0.3,0.6,0.7,0.8,1.1c0.2,0.4,0.3,1,0.3,1.5c0,0.6-0.1,1.1-0.3,1.5
				c-0.2,0.4-0.4,0.8-0.8,1.1s-0.7,0.5-1.1,0.7c-0.4,0.2-0.9,0.2-1.3,0.2c-0.4,0-0.9-0.1-1.3-0.2c-0.4-0.2-0.8-0.4-1.1-0.7
				s-0.6-0.7-0.8-1.1C377.4,170.2,377.3,169.7,377.3,169.1z M379,169.1c0,0.7,0.2,1.2,0.5,1.7c0.3,0.4,0.8,0.6,1.3,0.6
				c0.6,0,1-0.2,1.3-0.6c0.3-0.4,0.5-1,0.5-1.7c0-0.7-0.2-1.3-0.5-1.7c-0.3-0.4-0.8-0.6-1.3-0.6c-0.6,0-1,0.2-1.3,0.6
				C379.1,167.9,379,168.4,379,169.1z"/>
			<path fill="#353535" d="M386.1,165.7h1.3l0.1,1h0.1c0.3-0.3,0.7-0.6,1.1-0.8c0.4-0.2,0.9-0.4,1.4-0.4c0.8,0,1.4,0.2,1.8,0.7
				c0.4,0.5,0.6,1.2,0.6,2.1v4.3h-1.6v-4c0-0.6-0.1-1-0.3-1.2c-0.2-0.3-0.5-0.4-1-0.4c-0.3,0-0.6,0.1-0.9,0.2
				c-0.3,0.2-0.6,0.4-0.9,0.7v4.7h-1.6V165.7z"/>
		</g>
		<g>
			<path fill="#353535" d="M342.4,330.1c-0.3-0.1-0.5-0.2-0.7-0.2c-0.2,0-0.5-0.1-0.8-0.1c-0.5,0-0.9,0.1-1.2,0.4s-0.4,0.6-0.4,1.1
				v0.4h2.6v1.3h-2.6v5.6h-1.6V333h-1.9v-1.2l1.9-0.1v-0.4c0-0.4,0.1-0.8,0.2-1.1c0.1-0.3,0.3-0.6,0.5-0.9c0.2-0.2,0.5-0.4,0.9-0.6
				c0.4-0.1,0.8-0.2,1.3-0.2c0.4,0,0.7,0,1.1,0.1s0.7,0.2,1,0.3L342.4,330.1z"/>
			<path fill="#353535" d="M343.7,335.2c0-0.6,0.1-1.1,0.3-1.5s0.4-0.8,0.8-1.1c0.3-0.3,0.7-0.5,1.1-0.7s0.9-0.2,1.3-0.2
				c0.4,0,0.9,0.1,1.3,0.2s0.8,0.4,1.1,0.7c0.3,0.3,0.6,0.7,0.8,1.1c0.2,0.4,0.3,1,0.3,1.5s-0.1,1.1-0.3,1.5
				c-0.2,0.4-0.4,0.8-0.8,1.1c-0.3,0.3-0.7,0.5-1.1,0.7c-0.4,0.2-0.9,0.2-1.3,0.2c-0.4,0-0.9-0.1-1.3-0.2c-0.4-0.2-0.8-0.4-1.1-0.7
				c-0.3-0.3-0.6-0.7-0.8-1.1C343.8,336.2,343.7,335.7,343.7,335.2z M345.4,335.2c0,0.7,0.2,1.2,0.5,1.7c0.3,0.4,0.8,0.6,1.3,0.6
				c0.6,0,1-0.2,1.3-0.6c0.3-0.4,0.5-1,0.5-1.7c0-0.7-0.2-1.3-0.5-1.7c-0.3-0.4-0.8-0.6-1.3-0.6c-0.6,0-1,0.2-1.3,0.6
				C345.5,333.9,345.4,334.5,345.4,335.2z"/>
			<path fill="#353535" d="M352.1,335.2c0-0.6,0.1-1.1,0.3-1.5s0.4-0.8,0.8-1.1c0.3-0.3,0.7-0.5,1.1-0.7s0.9-0.2,1.3-0.2
				c0.4,0,0.9,0.1,1.3,0.2s0.8,0.4,1.1,0.7c0.3,0.3,0.6,0.7,0.8,1.1c0.2,0.4,0.3,1,0.3,1.5s-0.1,1.1-0.3,1.5
				c-0.2,0.4-0.4,0.8-0.8,1.1c-0.3,0.3-0.7,0.5-1.1,0.7c-0.4,0.2-0.9,0.2-1.3,0.2c-0.4,0-0.9-0.1-1.3-0.2c-0.4-0.2-0.8-0.4-1.1-0.7
				c-0.3-0.3-0.6-0.7-0.8-1.1C352.2,336.2,352.1,335.7,352.1,335.2z M353.8,335.2c0,0.7,0.2,1.2,0.5,1.7c0.3,0.4,0.8,0.6,1.3,0.6
				c0.6,0,1-0.2,1.3-0.6c0.3-0.4,0.5-1,0.5-1.7c0-0.7-0.2-1.3-0.5-1.7c-0.3-0.4-0.8-0.6-1.3-0.6c-0.6,0-1,0.2-1.3,0.6
				C353.9,333.9,353.8,334.5,353.8,335.2z"/>
			<path fill="#353535" d="M362.4,333h-1.8v-1.2l1.9-0.1l0.2-1.9h1.3v1.9h3.1v1.3h-3.1v2.8c0,0.6,0.1,1,0.4,1.3
				c0.2,0.3,0.6,0.4,1.2,0.4c0.3,0,0.6,0,0.8-0.1c0.2-0.1,0.5-0.1,0.7-0.2l0.3,1.2c-0.3,0.1-0.6,0.2-1,0.3c-0.4,0.1-0.8,0.1-1.2,0.1
				c-0.5,0-1-0.1-1.3-0.2c-0.4-0.1-0.6-0.3-0.9-0.6c-0.2-0.3-0.4-0.6-0.5-0.9c-0.1-0.4-0.1-0.8-0.1-1.2V333z"/>
			<path fill="#353535" d="M369,335.2c0-0.6,0.1-1.1,0.3-1.5c0.2-0.4,0.5-0.8,0.8-1.1s0.7-0.6,1.1-0.7s0.9-0.2,1.3-0.2
				c0.5,0,1,0.1,1.4,0.2c0.4,0.2,0.7,0.4,1,0.7c0.3,0.3,0.5,0.6,0.6,1s0.2,0.8,0.2,1.3c0,0.2,0,0.3,0,0.4c0,0.1,0,0.2,0,0.3h-5
				c0.1,0.6,0.3,1.1,0.7,1.4c0.4,0.3,0.9,0.5,1.6,0.5c0.4,0,0.7,0,1-0.1c0.3-0.1,0.6-0.2,0.9-0.4l0.5,1c-0.4,0.2-0.8,0.4-1.2,0.6
				c-0.5,0.1-0.9,0.2-1.4,0.2c-0.5,0-1-0.1-1.5-0.2s-0.9-0.4-1.2-0.7c-0.3-0.3-0.6-0.7-0.8-1.1C369.1,336.2,369,335.7,369,335.2z
				 M374.3,334.5c0-0.6-0.1-1-0.4-1.3c-0.3-0.3-0.7-0.5-1.2-0.5c-0.2,0-0.5,0-0.7,0.1c-0.2,0.1-0.4,0.2-0.6,0.3
				c-0.2,0.1-0.3,0.3-0.4,0.5c-0.1,0.2-0.2,0.5-0.2,0.8H374.3z"/>
			<path fill="#353535" d="M378.4,331.7h1.3l0.1,1.6h0c0.4-0.6,0.8-1,1.3-1.3c0.5-0.3,1-0.4,1.6-0.4c0.3,0,0.5,0,0.7,0.1
				c0.2,0,0.4,0.1,0.6,0.2l-0.3,1.4c-0.2-0.1-0.4-0.1-0.6-0.2c-0.2,0-0.4,0-0.7,0c-0.5,0-0.9,0.1-1.4,0.4c-0.4,0.3-0.8,0.7-1.2,1.4
				v3.8h-1.6V331.7z"/>
		</g>
		<g>
			<path fill="#353535" d="M335.7,51h1.6v2.5l-0.1,1.5c0.3-0.3,0.7-0.6,1.1-0.8c0.4-0.2,0.9-0.4,1.4-0.4c0.8,0,1.4,0.2,1.8,0.7
				c0.4,0.5,0.6,1.2,0.6,2.1v4.3h-1.6v-4c0-0.6-0.1-1-0.3-1.2c-0.2-0.3-0.5-0.4-1-0.4c-0.3,0-0.6,0.1-0.9,0.2
				c-0.3,0.2-0.6,0.4-0.9,0.7v4.7h-1.6V51z"/>
			<path fill="#353535" d="M343.8,57.4c0-0.6,0.1-1.1,0.3-1.5c0.2-0.4,0.5-0.8,0.8-1.1c0.3-0.3,0.7-0.6,1.1-0.7s0.9-0.2,1.3-0.2
				c0.5,0,1,0.1,1.4,0.2c0.4,0.2,0.7,0.4,1,0.7c0.3,0.3,0.5,0.6,0.6,1c0.1,0.4,0.2,0.8,0.2,1.3c0,0.2,0,0.3,0,0.4c0,0.1,0,0.2,0,0.3
				h-5c0.1,0.6,0.3,1.1,0.7,1.4c0.4,0.3,0.9,0.5,1.6,0.5c0.4,0,0.7,0,1-0.1c0.3-0.1,0.6-0.2,0.9-0.4l0.5,1c-0.4,0.2-0.8,0.4-1.2,0.6
				c-0.5,0.1-0.9,0.2-1.4,0.2c-0.5,0-1-0.1-1.5-0.2c-0.5-0.2-0.9-0.4-1.2-0.7c-0.3-0.3-0.6-0.7-0.8-1.1
				C343.9,58.5,343.8,58,343.8,57.4z M349.1,56.8c0-0.6-0.1-1-0.4-1.3c-0.3-0.3-0.7-0.5-1.2-0.5c-0.2,0-0.5,0-0.7,0.1
				c-0.2,0.1-0.4,0.2-0.6,0.3c-0.2,0.1-0.3,0.3-0.4,0.5c-0.1,0.2-0.2,0.5-0.2,0.8H349.1z"/>
			<path fill="#353535" d="M352.4,59c0-0.4,0.1-0.7,0.3-1c0.2-0.3,0.5-0.5,0.8-0.7c0.4-0.2,0.9-0.4,1.5-0.5c0.6-0.1,1.3-0.2,2.2-0.3
				c0-0.4-0.2-0.7-0.4-1s-0.7-0.4-1.2-0.4c-0.4,0-0.8,0.1-1.2,0.2c-0.4,0.1-0.7,0.3-1.1,0.5l-0.6-1.1c0.4-0.2,0.9-0.5,1.4-0.7
				c0.5-0.2,1.1-0.3,1.7-0.3c1,0,1.7,0.3,2.2,0.8c0.5,0.5,0.8,1.2,0.8,2.2v4.1h-1.3l-0.1-0.9h0c-0.4,0.3-0.8,0.5-1.2,0.7
				c-0.4,0.2-0.9,0.3-1.4,0.3c-0.3,0-0.6,0-0.9-0.1c-0.3-0.1-0.5-0.2-0.7-0.4c-0.2-0.2-0.4-0.4-0.5-0.6
				C352.4,59.6,352.4,59.3,352.4,59z M353.9,58.9c0,0.3,0.1,0.5,0.4,0.7c0.2,0.1,0.5,0.2,0.9,0.2s0.7-0.1,1-0.2
				c0.3-0.2,0.6-0.4,1-0.6v-1.5c-0.6,0-1.1,0.1-1.5,0.2c-0.4,0.1-0.7,0.2-1,0.3c-0.2,0.1-0.4,0.3-0.5,0.4
				C354,58.5,353.9,58.7,353.9,58.9z"/>
			<path fill="#353535" d="M360.5,57.4c0-0.6,0.1-1.1,0.3-1.5c0.2-0.4,0.4-0.8,0.7-1.1c0.3-0.3,0.6-0.5,1-0.7s0.7-0.3,1.1-0.3
				c0.4,0,0.8,0.1,1.1,0.2c0.3,0.1,0.6,0.3,0.9,0.6l-0.1-1.2V51h1.6v9.9h-1.3l-0.1-0.8h0c-0.3,0.3-0.6,0.5-0.9,0.7
				c-0.4,0.2-0.7,0.3-1.1,0.3c-0.4,0-0.8-0.1-1.2-0.2c-0.4-0.2-0.7-0.4-0.9-0.7c-0.3-0.3-0.5-0.7-0.6-1.1
				C360.6,58.5,360.5,58,360.5,57.4z M362.2,57.4c0,0.7,0.1,1.3,0.4,1.7c0.3,0.4,0.7,0.6,1.2,0.6c0.6,0,1.1-0.3,1.6-0.8v-3.1
				c-0.2-0.2-0.5-0.4-0.7-0.5s-0.5-0.1-0.7-0.1c-0.2,0-0.5,0.1-0.7,0.2c-0.2,0.1-0.4,0.2-0.6,0.4c-0.2,0.2-0.3,0.4-0.4,0.7
				C362.2,56.7,362.2,57.1,362.2,57.4z"/>
			<path fill="#353535" d="M369,57.4c0-0.6,0.1-1.1,0.3-1.5c0.2-0.4,0.5-0.8,0.8-1.1c0.3-0.3,0.7-0.6,1.1-0.7s0.9-0.2,1.3-0.2
				c0.5,0,1,0.1,1.4,0.2c0.4,0.2,0.7,0.4,1,0.7c0.3,0.3,0.5,0.6,0.6,1c0.1,0.4,0.2,0.8,0.2,1.3c0,0.2,0,0.3,0,0.4c0,0.1,0,0.2,0,0.3
				h-5c0.1,0.6,0.3,1.1,0.7,1.4c0.4,0.3,0.9,0.5,1.6,0.5c0.4,0,0.7,0,1-0.1c0.3-0.1,0.6-0.2,0.9-0.4l0.5,1c-0.4,0.2-0.8,0.4-1.2,0.6
				c-0.5,0.1-0.9,0.2-1.4,0.2c-0.5,0-1-0.1-1.5-0.2c-0.5-0.2-0.9-0.4-1.2-0.7c-0.3-0.3-0.6-0.7-0.8-1.1C369.1,58.5,369,58,369,57.4z
				 M374.3,56.8c0-0.6-0.1-1-0.4-1.3c-0.3-0.3-0.7-0.5-1.2-0.5c-0.2,0-0.5,0-0.7,0.1c-0.2,0.1-0.4,0.2-0.6,0.3
				c-0.2,0.1-0.3,0.3-0.4,0.5c-0.1,0.2-0.2,0.5-0.2,0.8H374.3z"/>
			<path fill="#353535" d="M378.4,54h1.3l0.1,1.6h0c0.4-0.6,0.8-1,1.3-1.3c0.5-0.3,1-0.4,1.6-0.4c0.3,0,0.5,0,0.7,0.1
				s0.4,0.1,0.6,0.2l-0.3,1.4c-0.2-0.1-0.4-0.1-0.6-0.2c-0.2,0-0.4,0-0.7,0c-0.5,0-0.9,0.1-1.4,0.4c-0.4,0.3-0.8,0.7-1.2,1.4v3.8
				h-1.6V54z"/>
		</g>
	</g>
	<g>
		<rect x="119.5" y="145.2" fill="#D0CFC5" width="139" height="155.7"/>
		<rect x="119.5" y="89.2" fill="#136FD2" width="139" height="45.9"/>
		<rect x="119.5" y="32.9" fill="#D0CFC5" width="139" height="45.9"/>
		<rect x="135.3" y="189.4" fill="#AFAEA7" width="106.6" height="96.1"/>
		<g>
			<path fill="#FFFFFF" d="M135.1,109.2h1.3l0.1,1h0.1c0.3-0.3,0.7-0.6,1.1-0.8c0.4-0.2,0.9-0.4,1.4-0.4c0.8,0,1.4,0.2,1.8,0.7
				c0.4,0.5,0.6,1.2,0.6,2.1v4.3h-1.6v-4c0-0.6-0.1-1-0.3-1.2c-0.2-0.3-0.5-0.4-1-0.4c-0.3,0-0.6,0.1-0.9,0.2
				c-0.3,0.2-0.6,0.4-0.9,0.7v4.7h-1.6V109.2z"/>
			<path fill="#FFFFFF" d="M143.3,114.2c0-0.4,0.1-0.7,0.3-1c0.2-0.3,0.5-0.5,0.8-0.7c0.4-0.2,0.9-0.4,1.5-0.5
				c0.6-0.1,1.3-0.2,2.2-0.3c0-0.4-0.2-0.7-0.4-1s-0.7-0.4-1.2-0.4c-0.4,0-0.8,0.1-1.2,0.2c-0.4,0.1-0.7,0.3-1.1,0.5l-0.6-1.1
				c0.4-0.2,0.9-0.5,1.4-0.7c0.5-0.2,1.1-0.3,1.7-0.3c1,0,1.7,0.3,2.2,0.8c0.5,0.5,0.8,1.2,0.8,2.2v4.1h-1.3l-0.1-0.9h0
				c-0.4,0.3-0.8,0.5-1.2,0.7c-0.4,0.2-0.9,0.3-1.4,0.3c-0.3,0-0.6,0-0.9-0.1c-0.3-0.1-0.5-0.2-0.7-0.4c-0.2-0.2-0.4-0.4-0.5-0.6
				C143.4,114.8,143.3,114.5,143.3,114.2z M144.9,114.1c0,0.3,0.1,0.5,0.4,0.7c0.2,0.1,0.5,0.2,0.9,0.2s0.7-0.1,1-0.2
				c0.3-0.2,0.6-0.4,1-0.6v-1.5c-0.6,0-1.1,0.1-1.5,0.2c-0.4,0.1-0.7,0.2-1,0.3c-0.2,0.1-0.4,0.3-0.5,0.4
				C144.9,113.7,144.9,113.9,144.9,114.1z"/>
			<path fill="#FFFFFF" d="M151.3,109.2h1.6l1.3,3.6c0.1,0.3,0.2,0.7,0.4,1c0.1,0.3,0.2,0.7,0.3,1h0.1c0.1-0.4,0.2-0.7,0.3-1
				c0.1-0.3,0.2-0.7,0.4-1l1.3-3.6h1.5l-2.7,6.9H154L151.3,109.2z"/>
		</g>
		<g>
			<path fill="#353535" d="M150.7,214.2c0-0.4,0.1-0.7,0.3-1c0.2-0.3,0.5-0.5,0.8-0.7c0.4-0.2,0.9-0.4,1.5-0.5
				c0.6-0.1,1.3-0.2,2.2-0.3c0-0.4-0.2-0.7-0.4-1s-0.7-0.4-1.2-0.4c-0.4,0-0.8,0.1-1.2,0.2c-0.4,0.1-0.7,0.3-1.1,0.5L151,210
				c0.4-0.2,0.9-0.5,1.4-0.7c0.5-0.2,1.1-0.3,1.7-0.3c1,0,1.7,0.3,2.2,0.8c0.5,0.5,0.8,1.2,0.8,2.2v4.1h-1.3l-0.1-0.9h0
				c-0.4,0.3-0.8,0.5-1.2,0.7c-0.4,0.2-0.9,0.3-1.4,0.3c-0.3,0-0.6,0-0.9-0.1c-0.3-0.1-0.5-0.2-0.7-0.4c-0.2-0.2-0.4-0.4-0.5-0.6
				C150.8,214.8,150.7,214.5,150.7,214.2z M152.3,214.1c0,0.3,0.1,0.5,0.4,0.7c0.2,0.1,0.5,0.2,0.9,0.2s0.7-0.1,1-0.2
				c0.3-0.2,0.6-0.4,1-0.6v-1.5c-0.6,0-1.1,0.1-1.5,0.2c-0.4,0.1-0.7,0.2-1,0.3c-0.2,0.1-0.4,0.3-0.5,0.4
				C152.3,213.8,152.3,213.9,152.3,214.1z"/>
			<path fill="#353535" d="M159.9,209.2h1.3l0.1,1.6h0c0.4-0.6,0.8-1,1.3-1.3c0.5-0.3,1-0.4,1.6-0.4c0.3,0,0.5,0,0.7,0.1
				s0.4,0.1,0.6,0.2l-0.3,1.4c-0.2-0.1-0.4-0.1-0.6-0.2c-0.2,0-0.4,0-0.7,0c-0.5,0-0.9,0.1-1.4,0.4c-0.4,0.3-0.8,0.7-1.2,1.4v3.8
				h-1.6V209.2z"/>
			<path fill="#353535" d="M169.2,210.5h-1.8v-1.2l1.9-0.1l0.2-1.9h1.3v1.9h3.1v1.3h-3.1v2.8c0,0.6,0.1,1,0.4,1.3
				c0.2,0.3,0.6,0.4,1.2,0.4c0.3,0,0.6,0,0.8-0.1s0.5-0.1,0.7-0.2l0.3,1.2c-0.3,0.1-0.6,0.2-1,0.3c-0.4,0.1-0.8,0.1-1.2,0.1
				c-0.5,0-1-0.1-1.3-0.2c-0.4-0.1-0.6-0.3-0.9-0.6c-0.2-0.3-0.4-0.6-0.5-0.9c-0.1-0.4-0.1-0.8-0.1-1.2V210.5z"/>
			<path fill="#353535" d="M176.1,209.2h4.6v6.9h-1.6v-5.6h-3V209.2z M179.8,208c-0.3,0-0.6-0.1-0.8-0.3c-0.2-0.2-0.3-0.5-0.3-0.8
				s0.1-0.6,0.3-0.8s0.5-0.3,0.8-0.3c0.3,0,0.6,0.1,0.8,0.3s0.3,0.5,0.3,0.8s-0.1,0.6-0.3,0.8C180.4,207.9,180.1,208,179.8,208z"/>
			<path fill="#353535" d="M184.3,212.7c0-0.6,0.1-1.1,0.3-1.5c0.2-0.4,0.5-0.8,0.8-1.1c0.4-0.3,0.8-0.5,1.2-0.7
				c0.5-0.2,1-0.2,1.5-0.2c0.6,0,1.1,0.1,1.5,0.3c0.4,0.2,0.8,0.4,1.1,0.7l-0.8,1c-0.3-0.2-0.5-0.4-0.8-0.5
				c-0.3-0.1-0.6-0.2-0.9-0.2c-0.7,0-1.3,0.2-1.7,0.6c-0.4,0.4-0.6,1-0.6,1.7c0,0.3,0.1,0.7,0.2,0.9c0.1,0.3,0.3,0.5,0.5,0.7
				c0.2,0.2,0.4,0.4,0.7,0.5c0.3,0.1,0.6,0.2,0.9,0.2c0.4,0,0.7-0.1,1.1-0.2c0.3-0.1,0.6-0.3,0.9-0.5l0.7,1
				c-0.4,0.3-0.8,0.6-1.3,0.8c-0.5,0.2-1,0.3-1.5,0.3c-0.5,0-1-0.1-1.5-0.2c-0.5-0.2-0.9-0.4-1.2-0.7s-0.6-0.7-0.8-1.1
				C184.4,213.7,184.3,213.2,184.3,212.7z"/>
			<path fill="#353535" d="M192.7,206.2h3.8v7.5c0,0.5,0.1,0.8,0.4,1c0.2,0.2,0.5,0.3,0.9,0.3c0.3,0,0.7-0.1,1.2-0.3l0.4,1.2
				c-0.3,0.1-0.6,0.2-0.9,0.3c-0.3,0.1-0.6,0.1-1,0.1c-0.8,0-1.4-0.2-1.8-0.7c-0.4-0.5-0.6-1.1-0.6-2v-6.1h-2.2V206.2z"/>
			<path fill="#353535" d="M201,212.7c0-0.6,0.1-1.1,0.3-1.5c0.2-0.4,0.5-0.8,0.8-1.1c0.3-0.3,0.7-0.6,1.1-0.7s0.9-0.2,1.3-0.2
				c0.5,0,1,0.1,1.4,0.2c0.4,0.2,0.7,0.4,1,0.7c0.3,0.3,0.5,0.6,0.6,1c0.1,0.4,0.2,0.8,0.2,1.3c0,0.2,0,0.3,0,0.4c0,0.1,0,0.2,0,0.3
				h-5c0.1,0.6,0.3,1.1,0.7,1.4c0.4,0.3,0.9,0.5,1.6,0.5c0.4,0,0.7,0,1-0.1c0.3-0.1,0.6-0.2,0.9-0.4l0.5,1c-0.4,0.2-0.8,0.4-1.2,0.6
				c-0.5,0.1-0.9,0.2-1.4,0.2c-0.5,0-1-0.1-1.5-0.2c-0.5-0.2-0.9-0.4-1.2-0.7c-0.3-0.3-0.6-0.7-0.8-1.1
				C201.1,213.7,201,213.2,201,212.7z M206.2,212c0-0.6-0.1-1-0.4-1.3c-0.3-0.3-0.7-0.5-1.2-0.5c-0.2,0-0.5,0-0.7,0.1
				c-0.2,0.1-0.4,0.2-0.6,0.3c-0.2,0.1-0.3,0.3-0.4,0.5c-0.1,0.2-0.2,0.5-0.2,0.8H206.2z"/>
		</g>
		<g>
			<path fill="#353535" d="M135.5,170.7c0.4,0.3,0.8,0.5,1.2,0.6c0.4,0.2,0.9,0.2,1.4,0.2c0.5,0,0.9-0.1,1.2-0.2
				c0.3-0.2,0.4-0.4,0.4-0.6s-0.2-0.4-0.5-0.6s-0.8-0.3-1.5-0.5c-0.3-0.1-0.6-0.2-1-0.3s-0.6-0.3-0.8-0.4c-0.2-0.2-0.4-0.3-0.6-0.5
				c-0.1-0.2-0.2-0.4-0.2-0.7c0-0.6,0.3-1.1,0.8-1.5c0.5-0.4,1.3-0.6,2.3-0.6c0.6,0,1.1,0.1,1.6,0.3c0.5,0.2,0.9,0.4,1.3,0.6l-0.7,1
				c-0.3-0.2-0.6-0.4-1-0.5c-0.4-0.1-0.7-0.2-1.1-0.2c-0.5,0-0.9,0.1-1.1,0.2c-0.2,0.1-0.3,0.3-0.3,0.5c0,0.1,0,0.2,0.1,0.3
				c0.1,0.1,0.2,0.2,0.4,0.3c0.2,0.1,0.4,0.2,0.6,0.2c0.2,0.1,0.5,0.1,0.8,0.2c0.4,0.1,0.8,0.2,1.1,0.3c0.3,0.1,0.6,0.3,0.8,0.4
				c0.2,0.2,0.4,0.3,0.5,0.6c0.1,0.2,0.2,0.5,0.2,0.7c0,0.3-0.1,0.6-0.2,0.8s-0.3,0.5-0.6,0.7c-0.3,0.2-0.6,0.3-1,0.5
				s-0.9,0.2-1.4,0.2c-0.6,0-1.3-0.1-1.8-0.3c-0.6-0.2-1.1-0.5-1.5-0.8L135.5,170.7z"/>
			<path fill="#353535" d="M143.2,169.1c0-0.6,0.1-1.1,0.3-1.5c0.2-0.4,0.5-0.8,0.8-1.1c0.3-0.3,0.7-0.6,1.1-0.7s0.9-0.2,1.3-0.2
				c0.5,0,1,0.1,1.4,0.2c0.4,0.2,0.7,0.4,1,0.7c0.3,0.3,0.5,0.6,0.6,1c0.1,0.4,0.2,0.8,0.2,1.3c0,0.2,0,0.3,0,0.4c0,0.1,0,0.2,0,0.3
				h-5c0.1,0.6,0.3,1.1,0.7,1.4c0.4,0.3,0.9,0.5,1.6,0.5c0.4,0,0.7,0,1-0.1c0.3-0.1,0.6-0.2,0.9-0.4l0.5,1c-0.4,0.2-0.8,0.4-1.2,0.6
				c-0.5,0.1-0.9,0.2-1.4,0.2c-0.5,0-1-0.1-1.5-0.2c-0.5-0.2-0.9-0.4-1.2-0.7c-0.3-0.3-0.6-0.7-0.8-1.1
				C143.3,170.2,143.2,169.7,143.2,169.1z M148.4,168.5c0-0.6-0.1-1-0.4-1.3c-0.3-0.3-0.7-0.5-1.2-0.5c-0.2,0-0.5,0-0.7,0.1
				c-0.2,0.1-0.4,0.2-0.6,0.3c-0.2,0.1-0.3,0.3-0.4,0.5c-0.1,0.2-0.2,0.5-0.2,0.8H148.4z"/>
			<path fill="#353535" d="M151.7,169.1c0-0.6,0.1-1.1,0.3-1.5c0.2-0.4,0.5-0.8,0.8-1.1c0.4-0.3,0.8-0.5,1.2-0.7
				c0.5-0.2,1-0.2,1.5-0.2c0.6,0,1.1,0.1,1.5,0.3c0.4,0.2,0.8,0.4,1.1,0.7l-0.8,1c-0.3-0.2-0.5-0.4-0.8-0.5
				c-0.3-0.1-0.6-0.2-0.9-0.2c-0.7,0-1.3,0.2-1.7,0.6c-0.4,0.4-0.6,1-0.6,1.7c0,0.3,0.1,0.7,0.2,0.9c0.1,0.3,0.3,0.5,0.5,0.7
				c0.2,0.2,0.4,0.4,0.7,0.5c0.3,0.1,0.6,0.2,0.9,0.2c0.4,0,0.7-0.1,1.1-0.2c0.3-0.1,0.6-0.3,0.9-0.5l0.7,1
				c-0.4,0.3-0.8,0.6-1.3,0.8c-0.5,0.2-1,0.3-1.5,0.3c-0.5,0-1-0.1-1.5-0.2c-0.5-0.2-0.9-0.4-1.2-0.7s-0.6-0.7-0.8-1.1
				C151.8,170.2,151.7,169.7,151.7,169.1z"/>
			<path fill="#353535" d="M161.8,167h-1.8v-1.2l1.9-0.1l0.2-1.9h1.3v1.9h3.1v1.3h-3.1v2.8c0,0.6,0.1,1,0.4,1.3
				c0.2,0.3,0.6,0.4,1.2,0.4c0.3,0,0.6,0,0.8-0.1s0.5-0.1,0.7-0.2l0.3,1.2c-0.3,0.1-0.6,0.2-1,0.3c-0.4,0.1-0.8,0.1-1.2,0.1
				c-0.5,0-1-0.1-1.3-0.2c-0.4-0.1-0.6-0.3-0.9-0.6c-0.2-0.3-0.4-0.6-0.5-0.9c-0.1-0.4-0.1-0.8-0.1-1.2V167z"/>
			<path fill="#353535" d="M168.7,165.7h4.6v6.9h-1.6V167h-3V165.7z M172.4,164.5c-0.3,0-0.6-0.1-0.8-0.3c-0.2-0.2-0.3-0.5-0.3-0.8
				s0.1-0.6,0.3-0.8s0.5-0.3,0.8-0.3c0.3,0,0.6,0.1,0.8,0.3s0.3,0.5,0.3,0.8s-0.1,0.6-0.3,0.8C173,164.4,172.7,164.5,172.4,164.5z"
				/>
			<path fill="#353535" d="M176.7,169.1c0-0.6,0.1-1.1,0.3-1.5c0.2-0.4,0.4-0.8,0.8-1.1c0.3-0.3,0.7-0.5,1.1-0.7s0.9-0.2,1.3-0.2
				c0.4,0,0.9,0.1,1.3,0.2s0.8,0.4,1.1,0.7c0.3,0.3,0.6,0.7,0.8,1.1c0.2,0.4,0.3,1,0.3,1.5c0,0.6-0.1,1.1-0.3,1.5
				c-0.2,0.4-0.4,0.8-0.8,1.1s-0.7,0.5-1.1,0.7c-0.4,0.2-0.9,0.2-1.3,0.2c-0.4,0-0.9-0.1-1.3-0.2c-0.4-0.2-0.8-0.4-1.1-0.7
				s-0.6-0.7-0.8-1.1C176.7,170.2,176.7,169.7,176.7,169.1z M178.3,169.1c0,0.7,0.2,1.2,0.5,1.7c0.3,0.4,0.8,0.6,1.3,0.6
				c0.6,0,1-0.2,1.3-0.6c0.3-0.4,0.5-1,0.5-1.7c0-0.7-0.2-1.3-0.5-1.7c-0.3-0.4-0.8-0.6-1.3-0.6c-0.6,0-1,0.2-1.3,0.6
				C178.5,167.9,178.3,168.4,178.3,169.1z"/>
			<path fill="#353535" d="M185.5,165.7h1.3l0.1,1h0.1c0.3-0.3,0.7-0.6,1.1-0.8c0.4-0.2,0.9-0.4,1.4-0.4c0.8,0,1.4,0.2,1.8,0.7
				c0.4,0.5,0.6,1.2,0.6,2.1v4.3h-1.6v-4c0-0.6-0.1-1-0.3-1.2c-0.2-0.3-0.5-0.4-1-0.4c-0.3,0-0.6,0.1-0.9,0.2
				c-0.3,0.2-0.6,0.4-0.9,0.7v4.7h-1.6V165.7z"/>
		</g>
		<g>
			<path fill="#353535" d="M135.1,51h1.6v2.5l-0.1,1.5c0.3-0.3,0.7-0.6,1.1-0.8c0.4-0.2,0.9-0.4,1.4-0.4c0.8,0,1.4,0.2,1.8,0.7
				c0.4,0.5,0.6,1.2,0.6,2.1v4.3h-1.6v-4c0-0.6-0.1-1-0.3-1.2c-0.2-0.3-0.5-0.4-1-0.4c-0.3,0-0.6,0.1-0.9,0.2
				c-0.3,0.2-0.6,0.4-0.9,0.7v4.7h-1.6V51z"/>
			<path fill="#353535" d="M143.2,57.4c0-0.6,0.1-1.1,0.3-1.5c0.2-0.4,0.5-0.8,0.8-1.1c0.3-0.3,0.7-0.6,1.1-0.7s0.9-0.2,1.3-0.2
				c0.5,0,1,0.1,1.4,0.2c0.4,0.2,0.7,0.4,1,0.7c0.3,0.3,0.5,0.6,0.6,1c0.1,0.4,0.2,0.8,0.2,1.3c0,0.2,0,0.3,0,0.4c0,0.1,0,0.2,0,0.3
				h-5c0.1,0.6,0.3,1.1,0.7,1.4c0.4,0.3,0.9,0.5,1.6,0.5c0.4,0,0.7,0,1-0.1c0.3-0.1,0.6-0.2,0.9-0.4l0.5,1c-0.4,0.2-0.8,0.4-1.2,0.6
				c-0.5,0.1-0.9,0.2-1.4,0.2c-0.5,0-1-0.1-1.5-0.2c-0.5-0.2-0.9-0.4-1.2-0.7c-0.3-0.3-0.6-0.7-0.8-1.1
				C143.3,58.5,143.2,58,143.2,57.4z M148.4,56.8c0-0.6-0.1-1-0.4-1.3c-0.3-0.3-0.7-0.5-1.2-0.5c-0.2,0-0.5,0-0.7,0.1
				c-0.2,0.1-0.4,0.2-0.6,0.3c-0.2,0.1-0.3,0.3-0.4,0.5c-0.1,0.2-0.2,0.5-0.2,0.8H148.4z"/>
			<path fill="#353535" d="M151.7,59c0-0.4,0.1-0.7,0.3-1c0.2-0.3,0.5-0.5,0.8-0.7c0.4-0.2,0.9-0.4,1.5-0.5c0.6-0.1,1.3-0.2,2.2-0.3
				c0-0.4-0.2-0.7-0.4-1s-0.7-0.4-1.2-0.4c-0.4,0-0.8,0.1-1.2,0.2c-0.4,0.1-0.7,0.3-1.1,0.5l-0.6-1.1c0.4-0.2,0.9-0.5,1.4-0.7
				c0.5-0.2,1.1-0.3,1.7-0.3c1,0,1.7,0.3,2.2,0.8c0.5,0.5,0.8,1.2,0.8,2.2v4.1h-1.3l-0.1-0.9h0c-0.4,0.3-0.8,0.5-1.2,0.7
				c-0.4,0.2-0.9,0.3-1.4,0.3c-0.3,0-0.6,0-0.9-0.1c-0.3-0.1-0.5-0.2-0.7-0.4c-0.2-0.2-0.4-0.4-0.5-0.6
				C151.8,59.6,151.7,59.3,151.7,59z M153.3,58.9c0,0.3,0.1,0.5,0.4,0.7c0.2,0.1,0.5,0.2,0.9,0.2s0.7-0.1,1-0.2
				c0.3-0.2,0.6-0.4,1-0.6v-1.5c-0.6,0-1.1,0.1-1.5,0.2c-0.4,0.1-0.7,0.2-1,0.3c-0.2,0.1-0.4,0.3-0.5,0.4
				C153.3,58.5,153.3,58.7,153.3,58.9z"/>
			<path fill="#353535" d="M159.9,57.4c0-0.6,0.1-1.1,0.3-1.5c0.2-0.4,0.4-0.8,0.7-1.1c0.3-0.3,0.6-0.5,1-0.7s0.7-0.3,1.1-0.3
				c0.4,0,0.8,0.1,1.1,0.2c0.3,0.1,0.6,0.3,0.9,0.6l-0.1-1.2V51h1.6v9.9H165l-0.1-0.8h0c-0.3,0.3-0.6,0.5-0.9,0.7
				c-0.4,0.2-0.7,0.3-1.1,0.3c-0.4,0-0.8-0.1-1.2-0.2c-0.4-0.2-0.7-0.4-0.9-0.7c-0.3-0.3-0.5-0.7-0.6-1.1
				C159.9,58.5,159.9,58,159.9,57.4z M161.5,57.4c0,0.7,0.1,1.3,0.4,1.7c0.3,0.4,0.7,0.6,1.2,0.6c0.6,0,1.1-0.3,1.6-0.8v-3.1
				c-0.2-0.2-0.5-0.4-0.7-0.5s-0.5-0.1-0.7-0.1c-0.2,0-0.5,0.1-0.7,0.2c-0.2,0.1-0.4,0.2-0.6,0.4c-0.2,0.2-0.3,0.4-0.4,0.7
				C161.6,56.7,161.5,57.1,161.5,57.4z"/>
			<path fill="#353535" d="M168.4,57.4c0-0.6,0.1-1.1,0.3-1.5c0.2-0.4,0.5-0.8,0.8-1.1c0.3-0.3,0.7-0.6,1.1-0.7s0.9-0.2,1.3-0.2
				c0.5,0,1,0.1,1.4,0.2c0.4,0.2,0.7,0.4,1,0.7c0.3,0.3,0.5,0.6,0.6,1c0.1,0.4,0.2,0.8,0.2,1.3c0,0.2,0,0.3,0,0.4c0,0.1,0,0.2,0,0.3
				h-5c0.1,0.6,0.3,1.1,0.7,1.4c0.4,0.3,0.9,0.5,1.6,0.5c0.4,0,0.7,0,1-0.1c0.3-0.1,0.6-0.2,0.9-0.4l0.5,1c-0.4,0.2-0.8,0.4-1.2,0.6
				c-0.5,0.1-0.9,0.2-1.4,0.2c-0.5,0-1-0.1-1.5-0.2c-0.5-0.2-0.9-0.4-1.2-0.7c-0.3-0.3-0.6-0.7-0.8-1.1
				C168.5,58.5,168.4,58,168.4,57.4z M173.6,56.8c0-0.6-0.1-1-0.4-1.3c-0.3-0.3-0.7-0.5-1.2-0.5c-0.2,0-0.5,0-0.7,0.1
				c-0.2,0.1-0.4,0.2-0.6,0.3c-0.2,0.1-0.3,0.3-0.4,0.5c-0.1,0.2-0.2,0.5-0.2,0.8H173.6z"/>
			<path fill="#353535" d="M177.7,54h1.3l0.1,1.6h0c0.4-0.6,0.8-1,1.3-1.3c0.5-0.3,1-0.4,1.6-0.4c0.3,0,0.5,0,0.7,0.1
				s0.4,0.1,0.6,0.2l-0.3,1.4c-0.2-0.1-0.4-0.1-0.6-0.2c-0.2,0-0.4,0-0.7,0c-0.5,0-0.9,0.1-1.4,0.4c-0.4,0.3-0.8,0.7-1.2,1.4v3.8
				h-1.6V54z"/>
		</g>
		<rect x="119.5" y="421.2" fill="#D0CFC5" width="139" height="45.9"/>
		<rect x="119.5" y="311.7" fill="#D0CFC5" width="139" height="99.1"/>
		<g>
			<path fill="#353535" d="M141.7,439.5c-0.3-0.1-0.5-0.2-0.7-0.2c-0.2,0-0.5-0.1-0.8-0.1c-0.5,0-0.9,0.1-1.2,0.4s-0.4,0.6-0.4,1.1
				v0.4h2.6v1.3h-2.6v5.6h-1.6v-5.6h-1.9v-1.2l1.9-0.1v-0.4c0-0.4,0.1-0.8,0.2-1.1c0.1-0.3,0.3-0.6,0.5-0.9c0.2-0.2,0.5-0.4,0.9-0.6
				c0.4-0.1,0.8-0.2,1.3-0.2c0.4,0,0.7,0,1.1,0.1s0.7,0.2,1,0.3L141.7,439.5z"/>
			<path fill="#353535" d="M143.1,444.6c0-0.6,0.1-1.1,0.3-1.5s0.4-0.8,0.8-1.1c0.3-0.3,0.7-0.5,1.1-0.7s0.9-0.2,1.3-0.2
				c0.4,0,0.9,0.1,1.3,0.2s0.8,0.4,1.1,0.7c0.3,0.3,0.6,0.7,0.8,1.1c0.2,0.4,0.3,1,0.3,1.5s-0.1,1.1-0.3,1.5
				c-0.2,0.4-0.4,0.8-0.8,1.1c-0.3,0.3-0.7,0.5-1.1,0.7c-0.4,0.2-0.9,0.2-1.3,0.2c-0.4,0-0.9-0.1-1.3-0.2c-0.4-0.2-0.8-0.4-1.1-0.7
				c-0.3-0.3-0.6-0.7-0.8-1.1C143.1,445.6,143.1,445.1,143.1,444.6z M144.7,444.6c0,0.7,0.2,1.2,0.5,1.7c0.3,0.4,0.8,0.6,1.3,0.6
				c0.6,0,1-0.2,1.3-0.6c0.3-0.4,0.5-1,0.5-1.7c0-0.7-0.2-1.3-0.5-1.7c-0.3-0.4-0.8-0.6-1.3-0.6c-0.6,0-1,0.2-1.3,0.6
				C144.9,443.3,144.7,443.9,144.7,444.6z"/>
			<path fill="#353535" d="M151.5,444.6c0-0.6,0.1-1.1,0.3-1.5s0.4-0.8,0.8-1.1c0.3-0.3,0.7-0.5,1.1-0.7s0.9-0.2,1.3-0.2
				c0.4,0,0.9,0.1,1.3,0.2s0.8,0.4,1.1,0.7c0.3,0.3,0.6,0.7,0.8,1.1c0.2,0.4,0.3,1,0.3,1.5s-0.1,1.1-0.3,1.5
				c-0.2,0.4-0.4,0.8-0.8,1.1c-0.3,0.3-0.7,0.5-1.1,0.7c-0.4,0.2-0.9,0.2-1.3,0.2c-0.4,0-0.9-0.1-1.3-0.2c-0.4-0.2-0.8-0.4-1.1-0.7
				c-0.3-0.3-0.6-0.7-0.8-1.1C151.5,445.6,151.5,445.1,151.5,444.6z M153.1,444.6c0,0.7,0.2,1.2,0.5,1.7c0.3,0.4,0.8,0.6,1.3,0.6
				c0.6,0,1-0.2,1.3-0.6c0.3-0.4,0.5-1,0.5-1.7c0-0.7-0.2-1.3-0.5-1.7c-0.3-0.4-0.8-0.6-1.3-0.6c-0.6,0-1,0.2-1.3,0.6
				C153.3,443.3,153.1,443.9,153.1,444.6z"/>
			<path fill="#353535" d="M161.8,442.4h-1.8v-1.2l1.9-0.1l0.2-1.9h1.3v1.9h3.1v1.3h-3.1v2.8c0,0.6,0.1,1,0.4,1.3
				c0.2,0.3,0.6,0.4,1.2,0.4c0.3,0,0.6,0,0.8-0.1c0.2-0.1,0.5-0.1,0.7-0.2l0.3,1.2c-0.3,0.1-0.6,0.2-1,0.3c-0.4,0.1-0.8,0.1-1.2,0.1
				c-0.5,0-1-0.1-1.3-0.2c-0.4-0.1-0.6-0.3-0.9-0.6c-0.2-0.3-0.4-0.6-0.5-0.9c-0.1-0.4-0.1-0.8-0.1-1.2V442.4z"/>
			<path fill="#353535" d="M168.4,444.6c0-0.6,0.1-1.1,0.3-1.5c0.2-0.4,0.5-0.8,0.8-1.1s0.7-0.6,1.1-0.7s0.9-0.2,1.3-0.2
				c0.5,0,1,0.1,1.4,0.2c0.4,0.2,0.7,0.4,1,0.7c0.3,0.3,0.5,0.6,0.6,1s0.2,0.8,0.2,1.3c0,0.2,0,0.3,0,0.4c0,0.1,0,0.2,0,0.3h-5
				c0.1,0.6,0.3,1.1,0.7,1.4c0.4,0.3,0.9,0.5,1.6,0.5c0.4,0,0.7,0,1-0.1c0.3-0.1,0.6-0.2,0.9-0.4l0.5,1c-0.4,0.2-0.8,0.4-1.2,0.6
				c-0.5,0.1-0.9,0.2-1.4,0.2c-0.5,0-1-0.1-1.5-0.2s-0.9-0.4-1.2-0.7c-0.3-0.3-0.6-0.7-0.8-1.1C168.5,445.6,168.4,445.1,168.4,444.6
				z M173.6,444c0-0.6-0.1-1-0.4-1.3c-0.3-0.3-0.7-0.5-1.2-0.5c-0.2,0-0.5,0-0.7,0.1c-0.2,0.1-0.4,0.2-0.6,0.3
				c-0.2,0.1-0.3,0.3-0.4,0.5c-0.1,0.2-0.2,0.5-0.2,0.8H173.6z"/>
			<path fill="#353535" d="M177.7,441.1h1.3l0.1,1.6h0c0.4-0.6,0.8-1,1.3-1.3c0.5-0.3,1-0.4,1.6-0.4c0.3,0,0.5,0,0.7,0.1
				c0.2,0,0.4,0.1,0.6,0.2l-0.3,1.4c-0.2-0.1-0.4-0.1-0.6-0.2c-0.2,0-0.4,0-0.7,0c-0.5,0-0.9,0.1-1.4,0.4c-0.4,0.3-0.8,0.7-1.2,1.4
				v3.8h-1.6V441.1z"/>
		</g>
		<g>
			<path fill="#353535" d="M134.9,337.9c0-0.4,0.1-0.7,0.3-1s0.5-0.5,0.8-0.7c0.4-0.2,0.9-0.4,1.5-0.5s1.3-0.2,2.2-0.3
				c0-0.4-0.2-0.7-0.4-1s-0.7-0.4-1.2-0.4c-0.4,0-0.8,0.1-1.2,0.2c-0.4,0.1-0.7,0.3-1.1,0.5l-0.6-1.1c0.4-0.2,0.9-0.5,1.4-0.7
				c0.5-0.2,1.1-0.3,1.7-0.3c1,0,1.7,0.3,2.2,0.8c0.5,0.5,0.8,1.2,0.8,2.2v4.1h-1.3l-0.1-0.9h0c-0.4,0.3-0.8,0.5-1.2,0.7
				c-0.4,0.2-0.9,0.3-1.4,0.3c-0.3,0-0.6,0-0.9-0.1c-0.3-0.1-0.5-0.2-0.7-0.4c-0.2-0.2-0.4-0.4-0.5-0.6
				C135,338.4,134.9,338.2,134.9,337.9z M136.5,337.7c0,0.3,0.1,0.5,0.4,0.7c0.2,0.1,0.5,0.2,0.9,0.2s0.7-0.1,1-0.2
				c0.3-0.2,0.6-0.4,1-0.6v-1.5c-0.6,0-1.1,0.1-1.5,0.2c-0.4,0.1-0.7,0.2-1,0.3c-0.2,0.1-0.4,0.3-0.5,0.4
				C136.5,337.4,136.5,337.5,136.5,337.7z"/>
			<path fill="#353535" d="M143.9,337.8c0.4,0.3,0.8,0.5,1.2,0.6c0.4,0.2,0.9,0.2,1.4,0.2c0.5,0,0.9-0.1,1.2-0.2
				c0.3-0.2,0.4-0.4,0.4-0.6c0-0.2-0.2-0.4-0.5-0.6c-0.3-0.2-0.8-0.3-1.5-0.5c-0.3-0.1-0.6-0.2-1-0.3c-0.3-0.1-0.6-0.3-0.8-0.4
				c-0.2-0.2-0.4-0.3-0.6-0.5c-0.1-0.2-0.2-0.4-0.2-0.7c0-0.6,0.3-1.1,0.8-1.5c0.5-0.4,1.3-0.6,2.3-0.6c0.6,0,1.1,0.1,1.6,0.3
				c0.5,0.2,0.9,0.4,1.3,0.6l-0.7,1c-0.3-0.2-0.6-0.4-1-0.5s-0.7-0.2-1.1-0.2c-0.5,0-0.9,0.1-1.1,0.2c-0.2,0.1-0.3,0.3-0.3,0.5
				c0,0.1,0,0.2,0.1,0.3c0.1,0.1,0.2,0.2,0.4,0.3c0.2,0.1,0.4,0.2,0.6,0.2c0.2,0.1,0.5,0.1,0.8,0.2c0.4,0.1,0.8,0.2,1.1,0.3
				c0.3,0.1,0.6,0.3,0.8,0.4c0.2,0.2,0.4,0.3,0.5,0.6s0.2,0.5,0.2,0.7c0,0.3-0.1,0.6-0.2,0.8s-0.3,0.5-0.6,0.7
				c-0.3,0.2-0.6,0.3-1,0.5s-0.9,0.2-1.4,0.2c-0.6,0-1.3-0.1-1.8-0.3s-1.1-0.5-1.5-0.8L143.9,337.8z"/>
			<path fill="#353535" d="M151.9,332.8h4.6v6.9h-1.6v-5.6h-3V332.8z M155.6,331.6c-0.3,0-0.6-0.1-0.8-0.3s-0.3-0.5-0.3-0.8
				c0-0.3,0.1-0.6,0.3-0.8c0.2-0.2,0.5-0.3,0.8-0.3c0.3,0,0.6,0.1,0.8,0.3c0.2,0.2,0.3,0.5,0.3,0.8c0,0.3-0.1,0.6-0.3,0.8
				S155.9,331.6,155.6,331.6z"/>
			<path fill="#353535" d="M159.9,336.3c0-0.6,0.1-1.1,0.3-1.5c0.2-0.4,0.4-0.8,0.7-1.1c0.3-0.3,0.6-0.5,1-0.7s0.7-0.3,1.1-0.3
				c0.4,0,0.8,0.1,1.1,0.2s0.6,0.3,0.9,0.6l-0.1-1.2v-2.5h1.6v9.9H165l-0.1-0.8h0c-0.3,0.3-0.6,0.5-0.9,0.7
				c-0.4,0.2-0.7,0.3-1.1,0.3c-0.4,0-0.8-0.1-1.2-0.2c-0.4-0.2-0.7-0.4-0.9-0.7c-0.3-0.3-0.5-0.7-0.6-1.1
				C159.9,337.3,159.9,336.8,159.9,336.3z M161.5,336.3c0,0.7,0.1,1.3,0.4,1.7c0.3,0.4,0.7,0.6,1.2,0.6c0.6,0,1.1-0.3,1.6-0.8v-3.1
				c-0.2-0.2-0.5-0.4-0.7-0.5c-0.2-0.1-0.5-0.1-0.7-0.1c-0.2,0-0.5,0.1-0.7,0.2s-0.4,0.2-0.6,0.4s-0.3,0.4-0.4,0.7
				S161.5,335.9,161.5,336.3z"/>
			<path fill="#353535" d="M168.4,336.3c0-0.6,0.1-1.1,0.3-1.5c0.2-0.4,0.5-0.8,0.8-1.1s0.7-0.6,1.1-0.7s0.9-0.2,1.3-0.2
				c0.5,0,1,0.1,1.4,0.2c0.4,0.2,0.7,0.4,1,0.7c0.3,0.3,0.5,0.6,0.6,1s0.2,0.8,0.2,1.3c0,0.2,0,0.3,0,0.4c0,0.1,0,0.2,0,0.3h-5
				c0.1,0.6,0.3,1.1,0.7,1.4c0.4,0.3,0.9,0.5,1.6,0.5c0.4,0,0.7,0,1-0.1c0.3-0.1,0.6-0.2,0.9-0.4l0.5,1c-0.4,0.2-0.8,0.4-1.2,0.6
				c-0.5,0.1-0.9,0.2-1.4,0.2c-0.5,0-1-0.1-1.5-0.2s-0.9-0.4-1.2-0.7c-0.3-0.3-0.6-0.7-0.8-1.1C168.5,337.3,168.4,336.8,168.4,336.3
				z M173.6,335.7c0-0.6-0.1-1-0.4-1.3c-0.3-0.3-0.7-0.5-1.2-0.5c-0.2,0-0.5,0-0.7,0.1c-0.2,0.1-0.4,0.2-0.6,0.3
				c-0.2,0.1-0.3,0.3-0.4,0.5c-0.1,0.2-0.2,0.5-0.2,0.8H173.6z"/>
		</g>
	</g>
</g>
</svg>
